<svg xmlns="http://www.w3.org/2000/svg" xmlns:xlink="http://www.w3.org/1999/xlink" version="1.1" data-diagram-type="CLASS" style="width:2757px;height:1079px;background:#FFFFFF;" width="2757px" height="1079px" viewBox="0 0 2757 1079" zoomAndPan="magnify" preserveAspectRatio="none" contentStyleType="text/css"><?plantuml 1.2026.7beta6?><defs/><g font-family="sans-serif" lengthAdjust="spacing"><!--class User--><g class="entity" data-qualified-name="User" id="ent0001" data-source-line="10"><rect x="1663.85" y="7" width="261.765" height="270.453" fill="#F1F1F1" style="stroke:#181818;stroke-width:0.5;" rx="2.5" ry="2.5"/><text x="1778.777" y="24.995" fill="#000" font-size="14" textLength="31.91">User</text><line x1="1664.85" y1="33.297" x2="1924.615" y2="33.297" style="stroke:#181818;stroke-width:0.5;"/><text x="1669.85" y="50.292" fill="#000" font-size="14" textLength="95.751">*id : INT «PK»</text><line x1="1664.85" y1="57.594" x2="1924.615" y2="57.594" style="stroke:#181818;stroke-width:1;"/><text x="1669.85" y="74.589" fill="#000" font-size="14" textLength="227.951">email : VARCHAR(180) «unique»</text><text x="1669.85" y="90.886" fill="#000" font-size="14" textLength="186.464">password : VARCHAR(255)</text><text x="1669.85" y="107.183" fill="#000" font-size="14" textLength="188.412">firstName : VARCHAR(255)</text><text x="1669.85" y="123.479" fill="#000" font-size="14" textLength="186.307">lastName : VARCHAR(255)</text><text x="1669.85" y="139.776" fill="#000" font-size="14" textLength="82.243">roles : JSON</text><text x="1669.85" y="156.073" fill="#000" font-size="14" textLength="136.691">isActive : BOOLEAN</text><text x="1669.85" y="172.37" fill="#000" font-size="14" textLength="174.72">emailVerified : BOOLEAN</text><text x="1669.85" y="188.667" fill="#000" font-size="14" textLength="208.127">profileImage : VARCHAR(255)</text><text x="1669.85" y="204.964" fill="#000" font-size="14" textLength="172.129">is2faEnabled : BOOLEAN</text><text x="1669.85" y="221.261" fill="#000" font-size="14" textLength="234.452">twoFactorSecret : VARCHAR(255)</text><text x="1669.85" y="237.558" fill="#000" font-size="14" textLength="249.765">googleId : VARCHAR(255) «unique»</text><text x="1669.85" y="253.854" fill="#000" font-size="14" textLength="163.461">createdAt : TIMESTAMP</text><text x="1669.85" y="270.151" fill="#000" font-size="14" textLength="168.041">updatedAt : TIMESTAMP</text></g><!--class Role--><g class="entity" data-qualified-name="Role" id="ent0002" data-source-line="28"><rect x="2501.21" y="431.08" width="241.045" height="91.188" fill="#F1F1F1" style="stroke:#181818;stroke-width:0.5;" rx="2.5" ry="2.5"/><text x="2606.335" y="449.075" fill="#000" font-size="14" textLength="30.796">Role</text><line x1="2502.21" y1="457.377" x2="2741.255" y2="457.377" style="stroke:#181818;stroke-width:0.5;"/><text x="2507.21" y="474.372" fill="#000" font-size="14" textLength="95.751">*id : INT «PK»</text><line x1="2502.21" y1="481.674" x2="2741.255" y2="481.674" style="stroke:#181818;stroke-width:1;"/><text x="2507.21" y="498.669" fill="#000" font-size="14" textLength="229.045">name : VARCHAR(100) «unique»</text><text x="2507.21" y="514.966" fill="#000" font-size="14" textLength="126.998">description : TEXT</text></g><!--class Permission--><g class="entity" data-qualified-name="Permission" id="ent0003" data-source-line="35"><rect x="2504.18" y="741.09" width="235.104" height="91.188" fill="#F1F1F1" style="stroke:#181818;stroke-width:0.5;" rx="2.5" ry="2.5"/><text x="2583.605" y="759.085" fill="#000" font-size="14" textLength="76.255">Permission</text><line x1="2505.18" y1="767.387" x2="2738.284" y2="767.387" style="stroke:#181818;stroke-width:0.5;"/><text x="2510.18" y="784.382" fill="#000" font-size="14" textLength="95.751">*id : INT «PK»</text><line x1="2505.18" y1="791.684" x2="2738.284" y2="791.684" style="stroke:#181818;stroke-width:1;"/><text x="2510.18" y="808.679" fill="#000" font-size="14" textLength="223.104">code : VARCHAR(100) «unique»</text><text x="2510.18" y="824.976" fill="#000" font-size="14" textLength="126.998">description : TEXT</text></g><!--class Vault--><g class="entity" data-qualified-name="Vault" id="ent0004" data-source-line="42"><rect x="390.97" y="382.19" width="201.506" height="188.969" fill="#F1F1F1" style="stroke:#181818;stroke-width:0.5;" rx="2.5" ry="2.5"/><text x="473.519" y="400.185" fill="#000" font-size="14" textLength="36.408">Vault</text><line x1="391.97" y1="408.487" x2="591.476" y2="408.487" style="stroke:#181818;stroke-width:0.5;"/><text x="396.97" y="425.482" fill="#000" font-size="14" textLength="95.751">*id : INT «PK»</text><line x1="391.97" y1="432.784" x2="591.476" y2="432.784" style="stroke:#181818;stroke-width:1;"/><text x="396.97" y="449.779" fill="#000" font-size="14" textLength="125.897">user_id : INT «FK»</text><text x="396.97" y="466.076" fill="#000" font-size="14" textLength="159.455">name : VARCHAR(255)</text><text x="396.97" y="482.373" fill="#000" font-size="14" textLength="126.998">description : TEXT</text><text x="396.97" y="498.669" fill="#000" font-size="14" textLength="142.536">archived : BOOLEAN</text><text x="396.97" y="514.966" fill="#000" font-size="14" textLength="146.337">encryptedKey : TEXT</text><text x="396.97" y="531.263" fill="#000" font-size="14" textLength="189.506">keyEncryptionVersion : INT</text><text x="396.97" y="547.56" fill="#000" font-size="14" textLength="163.461">createdAt : TIMESTAMP</text><text x="396.97" y="563.857" fill="#000" font-size="14" textLength="168.041">updatedAt : TIMESTAMP</text></g><g class="entity" data-qualified-name="GMN5" id="ent0006" data-source-line="56"><path d="M627.03,433.84 L627.03,472.95 L592.77,476.95 L627.03,480.95 L627.03,519.504 A0,0 0 0 0 627.03,519.504 L948.426,519.504 A0,0 0 0 0 948.426,519.504 L948.426,443.84 L938.426,433.84 L627.03,433.84 A0,0 0 0 0 627.03,433.84" style="stroke:#181818;stroke-width:0.5;" fill="#FEFFDD"/><path d="M938.426,433.84 L938.426,443.84 L948.426,443.84 L938.426,433.84" style="stroke:#181818;stroke-width:0.5;" fill="#FEFFDD"/><text x="633.03" y="450.907" fill="#000" font-size="13" textLength="246.08">encryptedKey : DEK du coffre, généré</text><text x="633.03" y="466.04" fill="#000" font-size="13" textLength="263.751">aléatoirement et stocké wrappé (chiffré)</text><text x="633.03" y="481.173" fill="#000" font-size="13" textLength="267.896">par la clé maître serveur. Jamais en clair.</text><text x="633.03" y="496.305" fill="#000" font-size="13" textLength="261.066">keyEncryptionVersion : version de la clé</text><text x="633.03" y="511.438" fill="#000" font-size="13" textLength="300.396">maître ayant wrappé encryptedKey (rotation).</text></g><!--class VaultPermission--><g class="entity" data-qualified-name="VaultPermission" id="ent0008" data-source-line="63"><rect x="983.63" y="422.93" width="226.197" height="107.484" fill="#F1F1F1" style="stroke:#181818;stroke-width:0.5;" rx="2.5" ry="2.5"/><text x="1040.397" y="440.925" fill="#000" font-size="14" textLength="112.663">VaultPermission</text><line x1="984.63" y1="449.227" x2="1208.827" y2="449.227" style="stroke:#181818;stroke-width:0.5;"/><text x="989.63" y="466.222" fill="#000" font-size="14" textLength="95.751">*id : INT «PK»</text><line x1="984.63" y1="473.524" x2="1208.827" y2="473.524" style="stroke:#181818;stroke-width:1;"/><text x="989.63" y="490.519" fill="#000" font-size="14" textLength="214.197">code : VARCHAR(50) «unique»</text><text x="989.63" y="506.816" fill="#000" font-size="14" textLength="159.455">name : VARCHAR(100)</text><text x="989.63" y="523.113" fill="#000" font-size="14" textLength="126.998">description : TEXT</text></g><!--class SharedVault--><g class="entity" data-qualified-name="SharedVault" id="ent0009" data-source-line="71"><rect x="1003.58" y="700.35" width="186.289" height="172.672" fill="#F1F1F1" style="stroke:#181818;stroke-width:0.5;" rx="2.5" ry="2.5"/><text x="1053.723" y="718.345" fill="#000" font-size="14" textLength="86.003">SharedVault</text><line x1="1004.58" y1="726.647" x2="1188.869" y2="726.647" style="stroke:#181818;stroke-width:0.5;"/><text x="1009.58" y="743.642" fill="#000" font-size="14" textLength="95.751">*id : INT «PK»</text><line x1="1004.58" y1="750.944" x2="1188.869" y2="750.944" style="stroke:#181818;stroke-width:1;"/><text x="1009.58" y="767.939" fill="#000" font-size="14" textLength="130.478">vault_id : INT «FK»</text><text x="1009.58" y="784.236" fill="#000" font-size="14" textLength="143.397">sender_id : INT «FK»</text><text x="1009.58" y="800.533" fill="#000" font-size="14" textLength="157.069">recipient_id : INT «FK»</text><text x="1009.58" y="816.829" fill="#000" font-size="14" textLength="172.061">permission_id : INT «FK»</text><text x="1009.58" y="833.126" fill="#000" font-size="14" textLength="146.419">accepted : BOOLEAN</text><text x="1009.58" y="849.423" fill="#000" font-size="14" textLength="174.289">acceptedAt : TIMESTAMP</text><text x="1009.58" y="865.72" fill="#000" font-size="14" textLength="157.828">sharedAt : TIMESTAMP</text></g><!--class PasswordEntry--><g class="entity" data-qualified-name="PasswordEntry" id="ent0010" data-source-line="83"><rect x="107.73" y="675.9" width="201.991" height="221.563" fill="#F1F1F1" style="stroke:#181818;stroke-width:0.5;" rx="2.5" ry="2.5"/><text x="156.967" y="693.895" fill="#000" font-size="14" textLength="103.517">PasswordEntry</text><line x1="108.73" y1="702.197" x2="308.721" y2="702.197" style="stroke:#181818;stroke-width:0.5;"/><text x="113.73" y="719.192" fill="#000" font-size="14" textLength="95.751">*id : INT «PK»</text><line x1="108.73" y1="726.494" x2="308.721" y2="726.494" style="stroke:#181818;stroke-width:1;"/><text x="113.73" y="743.489" fill="#000" font-size="14" textLength="130.478">vault_id : INT «FK»</text><text x="113.73" y="759.786" fill="#000" font-size="14" textLength="125.897">user_id : INT «FK»</text><text x="113.73" y="776.083" fill="#000" font-size="14" textLength="147.123">title : VARCHAR(255)</text><text x="113.73" y="792.379" fill="#000" font-size="14" textLength="189.991">username : VARCHAR(255)</text><text x="113.73" y="808.676" fill="#000" font-size="14" textLength="186.525">encryptedPassword : TEXT</text><text x="113.73" y="824.973" fill="#000" font-size="14" textLength="138.271">url : VARCHAR(500)</text><text x="113.73" y="841.27" fill="#000" font-size="14" textLength="87.992">notes : TEXT</text><text x="113.73" y="857.567" fill="#000" font-size="14" textLength="136.063">favorite : BOOLEAN</text><text x="113.73" y="873.864" fill="#000" font-size="14" textLength="163.461">createdAt : TIMESTAMP</text><text x="113.73" y="890.161" fill="#000" font-size="14" textLength="168.041">updatedAt : TIMESTAMP</text></g><g class="entity" data-qualified-name="GMN11" id="ent0012" data-source-line="99"><path d="M344.27,766.55 L344.27,782.95 L310.03,786.95 L344.27,790.95 L344.27,806.816 A0,0 0 0 0 344.27,806.816 L669.183,806.816 A0,0 0 0 0 669.183,806.816 L669.183,776.55 L659.183,766.55 L344.27,766.55 A0,0 0 0 0 344.27,766.55" style="stroke:#181818;stroke-width:0.5;" fill="#FEFFDD"/><path d="M659.183,766.55 L659.183,776.55 L669.183,776.55 L659.183,766.55" style="stroke:#181818;stroke-width:0.5;" fill="#FEFFDD"/><text x="350.27" y="783.617" fill="#000" font-size="13" textLength="296.118">encryptedPassword : chiffré en AES-256-GCM</text><text x="350.27" y="798.75" fill="#000" font-size="13" textLength="303.913">avec la clé de données (DEK) du coffre parent.</text></g><!--class PasswordHistory--><g class="entity" data-qualified-name="PasswordHistory" id="ent0014" data-source-line="103"><rect x="213.3" y="957.47" width="222.861" height="107.484" fill="#F1F1F1" style="stroke:#181818;stroke-width:0.5;" rx="2.5" ry="2.5"/><text x="266.694" y="975.465" fill="#000" font-size="14" textLength="116.074">PasswordHistory</text><line x1="214.3" y1="983.767" x2="435.161" y2="983.767" style="stroke:#181818;stroke-width:0.5;"/><text x="219.3" y="1000.762" fill="#000" font-size="14" textLength="95.751">*id : INT «PK»</text><line x1="214.3" y1="1008.064" x2="435.161" y2="1008.064" style="stroke:#181818;stroke-width:1;"/><text x="219.3" y="1025.059" fill="#000" font-size="14" textLength="206.09">password_entry_id : INT «FK»</text><text x="219.3" y="1041.356" fill="#000" font-size="14" textLength="210.861">previousPasswordHash : TEXT</text><text x="219.3" y="1057.653" fill="#000" font-size="14" textLength="170.235">changedAt : TIMESTAMP</text></g><!--class Category--><g class="entity" data-qualified-name="Category" id="ent0015" data-source-line="111"><rect x="7" y="965.61" width="171.455" height="91.188" fill="#F1F1F1" style="stroke:#181818;stroke-width:0.5;" rx="2.5" ry="2.5"/><text x="60.752" y="983.605" fill="#000" font-size="14" textLength="63.95">Category</text><line x1="8" y1="991.907" x2="177.455" y2="991.907" style="stroke:#181818;stroke-width:0.5;"/><text x="13" y="1008.902" fill="#000" font-size="14" textLength="95.751">*id : INT «PK»</text><line x1="8" y1="1016.204" x2="177.455" y2="1016.204" style="stroke:#181818;stroke-width:1;"/><text x="13" y="1033.199" fill="#000" font-size="14" textLength="159.455">name : VARCHAR(100)</text><text x="13" y="1049.496" fill="#000" font-size="14" textLength="145.318">color : VARCHAR(20)</text></g><!--class Tag--><g class="entity" data-qualified-name="Tag" id="ent0016" data-source-line="118"><rect x="553" y="965.61" width="171.455" height="91.188" fill="#F1F1F1" style="stroke:#181818;stroke-width:0.5;" rx="2.5" ry="2.5"/><text x="625.719" y="983.605" fill="#000" font-size="14" textLength="26.018">Tag</text><line x1="554" y1="991.907" x2="723.455" y2="991.907" style="stroke:#181818;stroke-width:0.5;"/><text x="559" y="1008.902" fill="#000" font-size="14" textLength="95.751">*id : INT «PK»</text><line x1="554" y1="1016.204" x2="723.455" y2="1016.204" style="stroke:#181818;stroke-width:1;"/><text x="559" y="1033.199" fill="#000" font-size="14" textLength="159.455">name : VARCHAR(100)</text><text x="559" y="1049.496" fill="#000" font-size="14" textLength="145.318">color : VARCHAR(20)</text></g><!--class BaseNotification--><g class="entity" data-qualified-name="BaseNotification" id="ent0017" data-source-line="129"><rect x="1925.37" y="337.45" width="184.717" height="278.453" fill="#F1F1F1" style="stroke:#181818;stroke-width:0.5;" rx="2.5" ry="2.5"/><text x="1960.518" y="355.445" fill="#000" font-size="14" textLength="114.42">BaseNotification</text><line x1="1926.37" y1="363.747" x2="2109.087" y2="363.747" style="stroke:#181818;stroke-width:0.5;"/><text x="1931.37" y="380.742" fill="#000" font-size="14" textLength="95.751">*id : INT «PK»</text><line x1="1926.37" y1="388.044" x2="2109.087" y2="388.044" style="stroke:#181818;stroke-width:1;"/><text x="1931.37" y="405.039" fill="#000" font-size="14" textLength="125.897">user_id : INT «FK»</text><text x="1931.37" y="421.336" fill="#000" font-size="14" textLength="144.368">discr : VARCHAR(20)</text><text x="1931.37" y="437.633" fill="#000" font-size="14" textLength="147.123">title : VARCHAR(255)</text><text x="1931.37" y="453.929" fill="#000" font-size="14" textLength="142.119">type : VARCHAR(50)</text><text x="1931.37" y="470.226" fill="#000" font-size="14" textLength="128.946">isRead : BOOLEAN</text><text x="1931.37" y="486.523" fill="#000" font-size="14" textLength="163.461">createdAt : TIMESTAMP</text><text x="1931.37" y="523.117" fill="#000" font-size="14" textLength="126.998">description : TEXT</text><text x="1931.37" y="539.414" fill="#000" font-size="14" textLength="172.717">category : VARCHAR(50)</text><line x1="1926.37" y1="501.973" x2="1956.53" y2="501.973" style="stroke:#181818;stroke-width:1;stroke-dasharray:1,2;"/><text x="1956.53" y="506.32" fill="#000" font-size="14" textLength="122.397">Alert uniquement</text><line x1="2078.927" y1="501.973" x2="2109.087" y2="501.973" style="stroke:#181818;stroke-width:1;stroke-dasharray:1,2;"/><text x="1931.37" y="576.008" fill="#000" font-size="14" textLength="112.075">message : TEXT</text><text x="1931.37" y="592.304" fill="#000" font-size="14" textLength="125.002">isSent : BOOLEAN</text><text x="1931.37" y="608.601" fill="#000" font-size="14" textLength="140.096">sentAt : TIMESTAMP</text><line x1="1926.37" y1="554.864" x2="1933.028" y2="554.864" style="stroke:#181818;stroke-width:1;stroke-dasharray:1,2;"/><text x="1933.028" y="559.211" fill="#000" font-size="14" textLength="169.401">Notification uniquement</text><line x1="2102.429" y1="554.864" x2="2109.087" y2="554.864" style="stroke:#181818;stroke-width:1;stroke-dasharray:1,2;"/></g><g class="entity" data-qualified-name="GMN18" id="ent0019" data-source-line="148"><path d="M2215.68,441.41 L2215.68,472.95 L2110.29,476.95 L2215.68,480.95 L2215.68,511.941 A0,0 0 0 0 2215.68,511.941 L2465.78,511.941 A0,0 0 0 0 2465.78,511.941 L2465.78,451.41 L2455.78,441.41 L2215.68,441.41 A0,0 0 0 0 2215.68,441.41" style="stroke:#181818;stroke-width:0.5;" fill="#FEFFDD"/><path d="M2455.78,441.41 L2455.78,451.41 L2465.78,451.41 L2455.78,441.41" style="stroke:#181818;stroke-width:0.5;" fill="#FEFFDD"/><text x="2221.68" y="458.477" fill="#000" font-size="13" textLength="192.017">STI (Single Table Inheritance)</text><text x="2221.68" y="473.61" fill="#000" font-size="13" textLength="171.292">discr = "alert"        → Alert</text><text x="2221.68" y="488.743" fill="#000" font-size="13" textLength="229.1">discr = "notification" → Notification</text><text x="2221.68" y="503.875" fill="#000" font-size="13" textLength="159.009">Table : base_notification</text></g><!--class ContactMessage--><g class="entity" data-qualified-name="ContactMessage" id="ent0021" data-source-line="158"><rect x="1960.48" y="64.04" width="182.495" height="156.375" fill="#F1F1F1" style="stroke:#181818;stroke-width:0.5;" rx="2.5" ry="2.5"/><text x="1993.813" y="82.035" fill="#000" font-size="14" textLength="115.828">ContactMessage</text><line x1="1961.48" y1="90.337" x2="2141.975" y2="90.337" style="stroke:#181818;stroke-width:0.5;"/><text x="1966.48" y="107.332" fill="#000" font-size="14" textLength="95.751">*id : INT «PK»</text><line x1="1961.48" y1="114.634" x2="2141.975" y2="114.634" style="stroke:#181818;stroke-width:1;"/><text x="1966.48" y="131.629" fill="#000" font-size="14" textLength="159.455">name : VARCHAR(100)</text><text x="1966.48" y="147.926" fill="#000" font-size="14" textLength="158.361">email : VARCHAR(180)</text><text x="1966.48" y="164.223" fill="#000" font-size="14" textLength="170.495">subject : VARCHAR(255)</text><text x="1966.48" y="180.519" fill="#000" font-size="14" textLength="112.075">message : TEXT</text><text x="1966.48" y="196.816" fill="#000" font-size="14" textLength="128.946">isRead : BOOLEAN</text><text x="1966.48" y="213.113" fill="#000" font-size="14" textLength="163.461">createdAt : TIMESTAMP</text></g><!--class ActivityLog--><g class="entity" data-qualified-name="ActivityLog" id="ent0022" data-source-line="169"><rect x="1244.76" y="406.64" width="191.929" height="140.078" fill="#F1F1F1" style="stroke:#181818;stroke-width:0.5;" rx="2.5" ry="2.5"/><text x="1301.797" y="424.635" fill="#000" font-size="14" textLength="77.854">ActivityLog</text><line x1="1245.76" y1="432.937" x2="1435.689" y2="432.937" style="stroke:#181818;stroke-width:0.5;"/><text x="1250.76" y="449.932" fill="#000" font-size="14" textLength="95.751">*id : INT «PK»</text><line x1="1245.76" y1="457.234" x2="1435.689" y2="457.234" style="stroke:#181818;stroke-width:1;"/><text x="1250.76" y="474.229" fill="#000" font-size="14" textLength="125.897">user_id : INT «FK»</text><text x="1250.76" y="490.526" fill="#000" font-size="14" textLength="162.846">action : VARCHAR(255)</text><text x="1250.76" y="506.823" fill="#000" font-size="14" textLength="179.929">ipAddress : VARCHAR(50)</text><text x="1250.76" y="523.119" fill="#000" font-size="14" textLength="121.133">userAgent : TEXT</text><text x="1250.76" y="539.416" fill="#000" font-size="14" textLength="163.461">createdAt : TIMESTAMP</text></g><!--class LoginAttempt--><g class="entity" data-qualified-name="LoginAttempt" id="ent0023" data-source-line="179"><rect x="1471.76" y="414.79" width="191.929" height="123.781" fill="#F1F1F1" style="stroke:#181818;stroke-width:0.5;" rx="2.5" ry="2.5"/><text x="1520.126" y="432.785" fill="#000" font-size="14" textLength="95.197">LoginAttempt</text><line x1="1472.76" y1="441.087" x2="1662.689" y2="441.087" style="stroke:#181818;stroke-width:0.5;"/><text x="1477.76" y="458.082" fill="#000" font-size="14" textLength="95.751">*id : INT «PK»</text><line x1="1472.76" y1="465.384" x2="1662.689" y2="465.384" style="stroke:#181818;stroke-width:1;"/><text x="1477.76" y="482.379" fill="#000" font-size="14" textLength="125.897">user_id : INT «FK»</text><text x="1477.76" y="498.676" fill="#000" font-size="14" textLength="179.929">ipAddress : VARCHAR(50)</text><text x="1477.76" y="514.973" fill="#000" font-size="14" textLength="136.719">success : BOOLEAN</text><text x="1477.76" y="531.269" fill="#000" font-size="14" textLength="163.461">createdAt : TIMESTAMP</text></g><!--class UserSession--><g class="entity" data-qualified-name="UserSession" id="ent0024" data-source-line="188"><rect x="1698.76" y="390.34" width="191.929" height="172.672" fill="#F1F1F1" style="stroke:#181818;stroke-width:0.5;" rx="2.5" ry="2.5"/><text x="1752.061" y="408.335" fill="#000" font-size="14" textLength="85.326">UserSession</text><line x1="1699.76" y1="416.637" x2="1889.689" y2="416.637" style="stroke:#181818;stroke-width:0.5;"/><text x="1704.76" y="433.632" fill="#000" font-size="14" textLength="95.751">*id : INT «PK»</text><line x1="1699.76" y1="440.934" x2="1889.689" y2="440.934" style="stroke:#181818;stroke-width:1;"/><text x="1704.76" y="457.929" fill="#000" font-size="14" textLength="125.897">user_id : INT «FK»</text><text x="1704.76" y="474.226" fill="#000" font-size="14" textLength="179.929">ipAddress : VARCHAR(45)</text><text x="1704.76" y="490.523" fill="#000" font-size="14" textLength="121.133">userAgent : TEXT</text><text x="1704.76" y="506.819" fill="#000" font-size="14" textLength="163.461">createdAt : TIMESTAMP</text><text x="1704.76" y="523.116" fill="#000" font-size="14" textLength="170.119">lastUsedAt : TIMESTAMP</text><text x="1704.76" y="539.413" fill="#000" font-size="14" textLength="136.691">isActive : BOOLEAN</text><text x="1704.76" y="555.71" fill="#000" font-size="14" textLength="175.301">location : VARCHAR(255)</text></g><!--link User to Role--><g class="link" data-entity-1="ent0001" data-entity-2="ent0002" id="lnk25" data-source-line="204" data-link-type="crowfoot"><path d="M1943.77,248.95 C2176.96,248.95 2621.73,248.95 2621.73,248.95 C2621.73,248.95 2621.73,346.05 2621.73,412.59" style="stroke:#181818;stroke-width:1;" fill="none" id="User-Role" codeLine="204"/><line x1="1933.77" y1="248.95" x2="1925.77" y2="254.95" style="stroke:#181818;stroke-width:1;"/><line x1="1933.77" y1="248.95" x2="1925.77" y2="242.95" style="stroke:#181818;stroke-width:1;"/><line x1="1933.77" y1="248.95" x2="1925.77" y2="248.95" style="stroke:#181818;stroke-width:1;"/><ellipse cx="1939.77" cy="248.95" rx="4" ry="4" fill="none" style="stroke:#181818;stroke-width:1;"/><line x1="2621.73" y1="422.59" x2="2627.73" y2="430.59" style="stroke:#181818;stroke-width:1;"/><line x1="2621.73" y1="422.59" x2="2615.73" y2="430.59" style="stroke:#181818;stroke-width:1;"/><line x1="2621.73" y1="422.59" x2="2621.73" y2="430.59" style="stroke:#181818;stroke-width:1;"/><ellipse cx="2621.73" cy="416.59" rx="4" ry="4" fill="none" style="stroke:#181818;stroke-width:1;"/><text x="2341.57" y="245.017" fill="#000" font-size="13" textLength="22.979">has</text></g><!--link Role to Permission--><g class="link" data-entity-1="ent0002" data-entity-2="ent0003" id="lnk26" data-source-line="205" data-link-type="crowfoot"><path d="M2621.73,540.75 C2621.73,599.37 2621.73,664 2621.73,722.61" style="stroke:#181818;stroke-width:1;" fill="none" id="Role-Permission" codeLine="205"/><line x1="2621.73" y1="530.75" x2="2615.73" y2="522.75" style="stroke:#181818;stroke-width:1;"/><line x1="2621.73" y1="530.75" x2="2627.73" y2="522.75" style="stroke:#181818;stroke-width:1;"/><line x1="2621.73" y1="530.75" x2="2621.73" y2="522.75" style="stroke:#181818;stroke-width:1;"/><ellipse cx="2621.73" cy="536.75" rx="4" ry="4" fill="none" style="stroke:#181818;stroke-width:1;"/><line x1="2621.73" y1="732.61" x2="2627.73" y2="740.61" style="stroke:#181818;stroke-width:1;"/><line x1="2621.73" y1="732.61" x2="2615.73" y2="740.61" style="stroke:#181818;stroke-width:1;"/><line x1="2621.73" y1="732.61" x2="2621.73" y2="740.61" style="stroke:#181818;stroke-width:1;"/><ellipse cx="2621.73" cy="726.61" rx="4" ry="4" fill="none" style="stroke:#181818;stroke-width:1;"/><text x="2565.73" y="627.747" fill="#000" font-size="13" textLength="55.028">contains</text></g><!--link PasswordEntry to Category--><g class="link" data-entity-1="ent0010" data-entity-2="ent0015" id="lnk27" data-source-line="206" data-link-type="crowfoot"><path d="M143.09,915.96 C143.09,939.78 143.09,927.65 143.09,947.3" style="stroke:#181818;stroke-width:1;" fill="none" id="PasswordEntry-Category" codeLine="206"/><line x1="143.09" y1="905.96" x2="137.09" y2="897.96" style="stroke:#181818;stroke-width:1;"/><line x1="143.09" y1="905.96" x2="149.09" y2="897.96" style="stroke:#181818;stroke-width:1;"/><line x1="143.09" y1="905.96" x2="143.09" y2="897.96" style="stroke:#181818;stroke-width:1;"/><ellipse cx="143.09" cy="911.96" rx="4" ry="4" fill="none" style="stroke:#181818;stroke-width:1;"/><line x1="143.09" y1="957.3" x2="149.09" y2="965.3" style="stroke:#181818;stroke-width:1;"/><line x1="143.09" y1="957.3" x2="137.09" y2="965.3" style="stroke:#181818;stroke-width:1;"/><line x1="143.09" y1="957.3" x2="143.09" y2="965.3" style="stroke:#181818;stroke-width:1;"/><ellipse cx="143.09" cy="951.3" rx="4" ry="4" fill="none" style="stroke:#181818;stroke-width:1;"/><text x="66.09" y="927.697" fill="#000" font-size="13" textLength="76.445">categorized</text></g><!--link PasswordEntry to Tag--><g class="link" data-entity-1="ent0010" data-entity-2="ent0016" id="lnk28" data-source-line="207" data-link-type="crowfoot"><path d="M328,885.95 C447.19,885.95 611.09,885.95 611.09,885.95 C611.09,885.95 611.09,911.53 611.09,947.28" style="stroke:#181818;stroke-width:1;" fill="none" id="PasswordEntry-Tag" codeLine="207"/><line x1="318" y1="885.95" x2="310" y2="891.95" style="stroke:#181818;stroke-width:1;"/><line x1="318" y1="885.95" x2="310" y2="879.95" style="stroke:#181818;stroke-width:1;"/><line x1="318" y1="885.95" x2="310" y2="885.95" style="stroke:#181818;stroke-width:1;"/><ellipse cx="324" cy="885.95" rx="4" ry="4" fill="none" style="stroke:#181818;stroke-width:1;"/><line x1="611.09" y1="957.28" x2="617.09" y2="965.28" style="stroke:#181818;stroke-width:1;"/><line x1="611.09" y1="957.28" x2="605.09" y2="965.28" style="stroke:#181818;stroke-width:1;"/><line x1="611.09" y1="957.28" x2="611.09" y2="965.28" style="stroke:#181818;stroke-width:1;"/><ellipse cx="611.09" cy="951.28" rx="4" ry="4" fill="none" style="stroke:#181818;stroke-width:1;"/><text x="454.21" y="882.017" fill="#000" font-size="13" textLength="45.817">tagged</text></g><!--link Vault to Tag--><g class="link" data-entity-1="ent0004" data-entity-2="ent0016" id="lnk29" data-source-line="208" data-link-type="crowfoot"><path d="M610.77,568.95 C662.54,568.95 696.82,568.95 696.82,568.95 C696.82,568.95 696.82,833.86 696.82,947.13" style="stroke:#181818;stroke-width:1;" fill="none" id="Vault-Tag" codeLine="208"/><line x1="600.77" y1="568.95" x2="592.77" y2="574.95" style="stroke:#181818;stroke-width:1;"/><line x1="600.77" y1="568.95" x2="592.77" y2="562.95" style="stroke:#181818;stroke-width:1;"/><line x1="600.77" y1="568.95" x2="592.77" y2="568.95" style="stroke:#181818;stroke-width:1;"/><ellipse cx="606.77" cy="568.95" rx="4" ry="4" fill="none" style="stroke:#181818;stroke-width:1;"/><line x1="696.82" y1="957.13" x2="702.82" y2="965.13" style="stroke:#181818;stroke-width:1;"/><line x1="696.82" y1="957.13" x2="690.82" y2="965.13" style="stroke:#181818;stroke-width:1;"/><line x1="696.82" y1="957.13" x2="696.82" y2="965.13" style="stroke:#181818;stroke-width:1;"/><ellipse cx="696.82" cy="951.13" rx="4" ry="4" fill="none" style="stroke:#181818;stroke-width:1;"/><text x="650.82" y="711.087" fill="#000" font-size="13" textLength="45.817">tagged</text></g><!--link User to Vault--><g class="link" data-entity-1="ent0001" data-entity-2="ent0004" id="lnk30" data-source-line="214" data-link-type="crowfoot"><path d="M1670.83,285.73 C1670.83,347.44 1670.83,398.95 1670.83,398.95 C1670.83,398.95 896.34,398.95 610.77,398.95" style="stroke:#181818;stroke-width:1;" fill="none" id="User-Vault" codeLine="214"/><line x1="1666.83" y1="281.73" x2="1674.83" y2="281.73" style="stroke:#181818;stroke-width:1;"/><line x1="1666.83" y1="284.73" x2="1674.83" y2="284.73" style="stroke:#181818;stroke-width:1;"/><line x1="1670.83" y1="285.73" x2="1670.83" y2="277.73" style="stroke:#181818;stroke-width:1;"/><line x1="600.77" y1="398.95" x2="592.77" y2="404.95" style="stroke:#181818;stroke-width:1;"/><line x1="600.77" y1="398.95" x2="592.77" y2="392.95" style="stroke:#181818;stroke-width:1;"/><line x1="600.77" y1="398.95" x2="592.77" y2="398.95" style="stroke:#181818;stroke-width:1;"/><ellipse cx="606.77" cy="398.95" rx="4" ry="4" fill="none" style="stroke:#181818;stroke-width:1;"/><text x="1158.41" y="395.017" fill="#000" font-size="13" textLength="33.598">owns</text></g><!--link User to BaseNotification--><g class="link" data-entity-1="ent0001" data-entity-2="ent0017" id="lnk31" data-source-line="215" data-link-type="crowfoot"><path d="M1908.03,285.95 C1908.03,330.09 1908.03,359.95 1908.03,359.95 C1908.03,359.95 1896.89,359.95 1907.17,359.95" style="stroke:#181818;stroke-width:1;" fill="none" id="User-BaseNotification" codeLine="215"/><line x1="1904.03" y1="281.95" x2="1912.03" y2="281.95" style="stroke:#181818;stroke-width:1;"/><line x1="1904.03" y1="284.95" x2="1912.03" y2="284.95" style="stroke:#181818;stroke-width:1;"/><line x1="1908.03" y1="285.95" x2="1908.03" y2="277.95" style="stroke:#181818;stroke-width:1;"/><line x1="1917.17" y1="359.95" x2="1925.17" y2="353.95" style="stroke:#181818;stroke-width:1;"/><line x1="1917.17" y1="359.95" x2="1925.17" y2="365.95" style="stroke:#181818;stroke-width:1;"/><line x1="1917.17" y1="359.95" x2="1925.17" y2="359.95" style="stroke:#181818;stroke-width:1;"/><ellipse cx="1911.17" cy="359.95" rx="4" ry="4" fill="none" style="stroke:#181818;stroke-width:1;"/><text x="1853.03" y="323.587" fill="#000" font-size="13" textLength="54.564">receives</text></g><!--link User to ActivityLog--><g class="link" data-entity-1="ent0001" data-entity-2="ent0022" id="lnk32" data-source-line="216" data-link-type="crowfoot"><path d="M1677.81,285.77 C1677.81,352.55 1677.81,410.95 1677.81,410.95 C1677.81,410.95 1554.5,410.95 1454.87,410.95" style="stroke:#181818;stroke-width:1;" fill="none" id="User-ActivityLog" codeLine="216"/><line x1="1673.81" y1="281.77" x2="1681.81" y2="281.77" style="stroke:#181818;stroke-width:1;"/><line x1="1673.81" y1="284.77" x2="1681.81" y2="284.77" style="stroke:#181818;stroke-width:1;"/><line x1="1677.81" y1="285.77" x2="1677.81" y2="277.77" style="stroke:#181818;stroke-width:1;"/><line x1="1444.87" y1="410.95" x2="1436.87" y2="416.95" style="stroke:#181818;stroke-width:1;"/><line x1="1444.87" y1="410.95" x2="1436.87" y2="404.95" style="stroke:#181818;stroke-width:1;"/><line x1="1444.87" y1="410.95" x2="1436.87" y2="410.95" style="stroke:#181818;stroke-width:1;"/><ellipse cx="1450.87" cy="410.95" rx="4" ry="4" fill="none" style="stroke:#181818;stroke-width:1;"/><text x="1557.93" y="407.017" fill="#000" font-size="13" textLength="65.667">generates</text></g><!--link User to LoginAttempt--><g class="link" data-entity-1="ent0001" data-entity-2="ent0023" id="lnk33" data-source-line="217" data-link-type="crowfoot"><path d="M1684.8,285.89 C1684.8,378.67 1684.8,476.95 1684.8,476.95 C1684.8,476.95 1694.41,476.95 1682.14,476.95" style="stroke:#181818;stroke-width:1;" fill="none" id="User-LoginAttempt" codeLine="217"/><line x1="1680.8" y1="281.89" x2="1688.8" y2="281.89" style="stroke:#181818;stroke-width:1;"/><line x1="1680.8" y1="284.89" x2="1688.8" y2="284.89" style="stroke:#181818;stroke-width:1;"/><line x1="1684.8" y1="285.89" x2="1684.8" y2="277.89" style="stroke:#181818;stroke-width:1;"/><line x1="1672.14" y1="476.95" x2="1664.14" y2="482.95" style="stroke:#181818;stroke-width:1;"/><line x1="1672.14" y1="476.95" x2="1664.14" y2="470.95" style="stroke:#181818;stroke-width:1;"/><line x1="1672.14" y1="476.95" x2="1664.14" y2="476.95" style="stroke:#181818;stroke-width:1;"/><ellipse cx="1678.14" cy="476.95" rx="4" ry="4" fill="none" style="stroke:#181818;stroke-width:1;"/><text x="1625.8" y="383.817" fill="#000" font-size="13" textLength="58.906">performs</text></g><!--link User to UserSession--><g class="link" data-entity-1="ent0001" data-entity-2="ent0024" id="lnk34" data-source-line="218" data-link-type="crowfoot"><path d="M1794.73,285.78 C1794.73,323.62 1794.73,337.71 1794.73,371.91" style="stroke:#181818;stroke-width:1;" fill="none" id="User-UserSession" codeLine="218"/><line x1="1790.73" y1="281.78" x2="1798.73" y2="281.78" style="stroke:#181818;stroke-width:1;"/><line x1="1790.73" y1="284.78" x2="1798.73" y2="284.78" style="stroke:#181818;stroke-width:1;"/><line x1="1794.73" y1="285.78" x2="1794.73" y2="277.78" style="stroke:#181818;stroke-width:1;"/><line x1="1794.73" y1="381.91" x2="1800.73" y2="389.91" style="stroke:#181818;stroke-width:1;"/><line x1="1794.73" y1="381.91" x2="1788.73" y2="389.91" style="stroke:#181818;stroke-width:1;"/><line x1="1794.73" y1="381.91" x2="1794.73" y2="389.91" style="stroke:#181818;stroke-width:1;"/><ellipse cx="1794.73" cy="375.91" rx="4" ry="4" fill="none" style="stroke:#181818;stroke-width:1;"/><text x="1754.73" y="329.907" fill="#000" font-size="13" textLength="39.216">opens</text></g><!--link Vault to PasswordEntry--><g class="link" data-entity-1="ent0004" data-entity-2="ent0010" id="lnk35" data-source-line="220" data-link-type="crowfoot"><path d="M491.73,579.64 C491.73,636.16 491.73,688.95 491.73,688.95 C491.73,688.95 409.3,688.95 328.1,688.95" style="stroke:#181818;stroke-width:1;" fill="none" id="Vault-PasswordEntry" codeLine="220"/><line x1="487.73" y1="575.64" x2="495.73" y2="575.64" style="stroke:#181818;stroke-width:1;"/><line x1="487.73" y1="578.64" x2="495.73" y2="578.64" style="stroke:#181818;stroke-width:1;"/><line x1="491.73" y1="579.64" x2="491.73" y2="571.64" style="stroke:#181818;stroke-width:1;"/><line x1="318.1" y1="688.95" x2="310.1" y2="694.95" style="stroke:#181818;stroke-width:1;"/><line x1="318.1" y1="688.95" x2="310.1" y2="682.95" style="stroke:#181818;stroke-width:1;"/><line x1="318.1" y1="688.95" x2="310.1" y2="688.95" style="stroke:#181818;stroke-width:1;"/><ellipse cx="324.1" cy="688.95" rx="4" ry="4" fill="none" style="stroke:#181818;stroke-width:1;"/><text x="403.57" y="685.017" fill="#000" font-size="13" textLength="55.028">contains</text></g><!--link Vault to SharedVault--><g class="link" data-entity-1="ent0004" data-entity-2="ent0009" id="lnk36" data-source-line="221" data-link-type="crowfoot"><path d="M600.69,565.95 C765.38,565.95 1065.68,565.95 1065.68,565.95 C1065.68,565.95 1065.68,620.24 1065.68,682.08" style="stroke:#181818;stroke-width:1;" fill="none" id="Vault-SharedVault" codeLine="221"/><line x1="596.69" y1="569.95" x2="596.69" y2="561.95" style="stroke:#181818;stroke-width:1;"/><line x1="599.69" y1="569.95" x2="599.69" y2="561.95" style="stroke:#181818;stroke-width:1;"/><line x1="600.69" y1="565.95" x2="592.69" y2="565.95" style="stroke:#181818;stroke-width:1;"/><line x1="1065.68" y1="692.08" x2="1071.68" y2="700.08" style="stroke:#181818;stroke-width:1;"/><line x1="1065.68" y1="692.08" x2="1059.68" y2="700.08" style="stroke:#181818;stroke-width:1;"/><line x1="1065.68" y1="692.08" x2="1065.68" y2="700.08" style="stroke:#181818;stroke-width:1;"/><ellipse cx="1065.68" cy="686.08" rx="4" ry="4" fill="none" style="stroke:#181818;stroke-width:1;"/><text x="828.25" y="562.017" fill="#000" font-size="13" textLength="67.977">shared via</text></g><!--link VaultPermission to SharedVault--><g class="link" data-entity-1="ent0008" data-entity-2="ent0009" id="lnk37" data-source-line="223" data-link-type="crowfoot"><path d="M1127.78,538.68 C1127.78,585.34 1127.78,627.64 1127.78,681.96" style="stroke:#181818;stroke-width:1;" fill="none" id="VaultPermission-SharedVault" codeLine="223"/><line x1="1123.78" y1="534.68" x2="1131.78" y2="534.68" style="stroke:#181818;stroke-width:1;"/><line x1="1123.78" y1="537.68" x2="1131.78" y2="537.68" style="stroke:#181818;stroke-width:1;"/><line x1="1127.78" y1="538.68" x2="1127.78" y2="530.68" style="stroke:#181818;stroke-width:1;"/><line x1="1127.78" y1="691.96" x2="1133.78" y2="699.96" style="stroke:#181818;stroke-width:1;"/><line x1="1127.78" y1="691.96" x2="1121.78" y2="699.96" style="stroke:#181818;stroke-width:1;"/><line x1="1127.78" y1="691.96" x2="1127.78" y2="699.96" style="stroke:#181818;stroke-width:1;"/><ellipse cx="1127.78" cy="685.96" rx="4" ry="4" fill="none" style="stroke:#181818;stroke-width:1;"/><text x="1085.78" y="611.387" fill="#000" font-size="13" textLength="41.672">grants</text></g><!--link User to SharedVault--><g class="link" data-entity-1="ent0001" data-entity-2="ent0009" id="lnk38" data-source-line="224" data-link-type="crowfoot"><path d="M1691.78,285.91 C1691.78,456.96 1691.78,720.95 1691.78,720.95 C1691.78,720.95 1375.93,720.95 1208.36,720.95" style="stroke:#181818;stroke-width:1;" fill="none" id="User-SharedVault" codeLine="224"/><line x1="1687.78" y1="281.91" x2="1695.78" y2="281.91" style="stroke:#181818;stroke-width:1;"/><line x1="1687.78" y1="284.91" x2="1695.78" y2="284.91" style="stroke:#181818;stroke-width:1;"/><line x1="1691.78" y1="285.91" x2="1691.78" y2="277.91" style="stroke:#181818;stroke-width:1;"/><line x1="1198.36" y1="720.95" x2="1190.36" y2="726.95" style="stroke:#181818;stroke-width:1;"/><line x1="1198.36" y1="720.95" x2="1190.36" y2="714.95" style="stroke:#181818;stroke-width:1;"/><line x1="1198.36" y1="720.95" x2="1190.36" y2="720.95" style="stroke:#181818;stroke-width:1;"/><ellipse cx="1204.36" cy="720.95" rx="4" ry="4" fill="none" style="stroke:#181818;stroke-width:1;"/><text x="1603.59" y="717.017" fill="#000" font-size="13" textLength="58.576">accesses</text></g><!--link PasswordEntry to PasswordHistory--><g class="link" data-entity-1="ent0010" data-entity-2="ent0014" id="lnk39" data-source-line="226" data-link-type="crowfoot"><path d="M261.51,905.96 C261.51,926.58 261.51,921.24 261.51,939.17" style="stroke:#181818;stroke-width:1;" fill="none" id="PasswordEntry-PasswordHistory" codeLine="226"/><line x1="257.51" y1="901.96" x2="265.51" y2="901.96" style="stroke:#181818;stroke-width:1;"/><line x1="257.51" y1="904.96" x2="265.51" y2="904.96" style="stroke:#181818;stroke-width:1;"/><line x1="261.51" y1="905.96" x2="261.51" y2="897.96" style="stroke:#181818;stroke-width:1;"/><line x1="261.51" y1="949.17" x2="267.51" y2="957.17" style="stroke:#181818;stroke-width:1;"/><line x1="261.51" y1="949.17" x2="255.51" y2="957.17" style="stroke:#181818;stroke-width:1;"/><line x1="261.51" y1="949.17" x2="261.51" y2="957.17" style="stroke:#181818;stroke-width:1;"/><ellipse cx="261.51" cy="943.17" rx="4" ry="4" fill="none" style="stroke:#181818;stroke-width:1;"/><text x="216.51" y="923.627" fill="#000" font-size="13" textLength="44.713">history</text></g><?plantuml-src jLVDRjj64BxhAHQwL2ugmJ7geZ2I08pBD8fZsH0PepqPw-M8sfhQPNUNCfGVeAS0kHPz2Ltw4dgJF4bd-IEH56NJ5ieB9SwtCxCptypEJda0X7758kZeMovYgkYCH5o0MSH0f39JMHAmY6hj6AFuJM9WoAJm-0SWXoM8dj90td4HaWcDD7Gwtv4N3p-8SaV-q5zzzLekw80mt2p8UmsAVEmGVBudF20dP3ZooVFdbsSlNwPV-_tq1JFA8vHUEUFJDywuz-pdmmE49OB_cK0EZN5tTr859TZHyV51AfjmfSs8pg19Y67PALCo0es2jzx5AFt0jSCCdrlmgukBTwupsZXu1OfFE0GrMQpaX4SmdD6mqGRNHnFg2deJRIqrT_8rPKOg3vW2qxGwb394vVLjrwE3owc1mB4w_E6vw_dE-MKgIUAWGV9vdQCnXg1DZaGrXCyEjrCKW6QAnuPBOOsvl_abEvUWPbnhAsjXZSbWBsjND8bC6qC9KlIw97zToCKEoZIOjP-fObFaJJt389XQn1Z_CrYKuRUmS3CHwa5YwKmT-l3KT0ffW2WUJWsHasp_dItxlxXd94WmkfE9WXz8k5gArLAjbeYaqMf9ZUGAPXX3WcpKHhBRrPBSAHh7-ExX3d7TQca3WGq5AmkR3WfcTFMlKK0mb7D8r82yfLWl6etRfiJLeBDpm_Fy5sOxruROGXzTKFIaC5_PIaz9GwsgWm6cF21szzNaxyMtusswDV3_OHfwKweWQ4t6kGKsib7Z9dSGLG7ZCKU3ZT9u7OP6CMKCR4nhj2q-Dn1GfrlQsKukypRj2gCM--rvPscYeQYnDksANNMxfi_bvY1PbsEYeahsyznQLkaoRaBdKd5JFnxsBjTAr3hDpXRLPylASRt-qV5F_LzFpstfpe6jYn5v74Y1POsUzx3U3pO5RuiMqzHGCOMPDnoBlbtUYlFu6gpFpTnJCESoqMljL4_BqMHJAi9xk7IAeGjRkhEhF9cCf2hp0RzlBFWq_1-KjvsgF7z8lltr3tb5DOoamU62fJtjaLDMVVbUnrx0iPtLjdHlpQMpQALpvbFF66ZGkau60-94e0p9Ucvw10q6znsuh237jcrKLed7jiuPQ9sDQsjzN7iMK7KOswvvg7QtiaVInFOydBCnPBuT_CXGJ75wD5Gmi3vcKNv1kjHkkalovzkNlxCmb26YfBkRGchMCWidv0OTkIwZItNUbfBEUt_iUa-Tzq-bC3ZFdkVHtQEoccu4MKQIcp-0DOxAZKbjpS9DKqXl0FZZdGptAYMCHCRPxIj1x0I1GdSRo6lLEM56nGtP7t0PNUK2xtumY_URUk_pJ2Su5QIInqJJtW4zQ3s8FSgp7uyV7RFYHeXkDObstFyYcRUIMZ8VqUpFdT7lnBz8tstBAhq_VvRzlloOtTDEI7TATRUJ_ia5fK4NnSoM81U8gKvYEVXqqpMxUGVb7o3OWRR78m8D3KEBoUROPbdhE5oCt2U5uTEdr6pc0ngMTtQJPT7MEOWe78u1qrb3bYiSGSWSK1YC6gfIL0Z3KNeYrQo6AlFRkXM3zIkFLOwf1hUIfGgkV5r0L3PgapcdXS9IhfkNX0glJ3KFQn2QLh7TR2tfDMUBMT1oBllP_Gy0?></g></svg>